<?xml version="1.0" encoding="utf-8"?>
<svg version="1.1" xmlns:xlink="http://www.w3.org/1999/xlink" width="75px" height="22px" xmlns="http://www.w3.org/2000/svg">
  <defs>
    <mask fill="white" id="clip8">
      <path d="M 21.7105263157895 22  C 9.55263157894732 22  0 17.16  0 11  C 0 4.84  9.55263157894732 0  21.7105263157895 0  L 31.5789473684211 0  L 53.2894736842105 0  C 65.4473684210526 0  75 4.84  75 11  C 75 17.16  65.4473684210526 22  53.2894736842105 22  L 21.7105263157895 22  Z " fill-rule="evenodd" />
    </mask>
  </defs>
  <g transform="matrix(1 0 0 1 -441 -377 )">
    <path d="M 21.7105263157895 22  C 9.55263157894732 22  0 17.16  0 11  C 0 4.84  9.55263157894732 0  21.7105263157895 0  L 31.5789473684211 0  L 53.2894736842105 0  C 65.4473684210526 0  75 4.84  75 11  C 75 17.16  65.4473684210526 22  53.2894736842105 22  L 21.7105263157895 22  Z " fill-rule="nonzero" fill="#ffffff" stroke="none" transform="matrix(1 0 0 1 441 377 )" />
    <path d="M 21.7105263157895 22  C 9.55263157894732 22  0 17.16  0 11  C 0 4.84  9.55263157894732 0  21.7105263157895 0  L 31.5789473684211 0  L 53.2894736842105 0  C 65.4473684210526 0  75 4.84  75 11  C 75 17.16  65.4473684210526 22  53.2894736842105 22  L 21.7105263157895 22  Z " stroke-width="2" stroke="#797979" fill="none" transform="matrix(1 0 0 1 441 377 )" mask="url(#clip8)" />
  </g>
</svg>