<?xml version="1.0" encoding="utf-8"?>
<svg version="1.1" xmlns:xlink="http://www.w3.org/1999/xlink" width="115px" height="22px" xmlns="http://www.w3.org/2000/svg">
  <defs>
    <mask fill="white" id="clip9">
      <path d="M 33.2894736842105 22  C 14.6473684210526 22  0 17.16  0 11  C 0 4.84  14.6473684210526 0  33.2894736842105 0  L 48.4210526315789 0  L 81.7105263157895 0  C 100.352631578947 0  115 4.84  115 11  C 115 17.16  100.352631578947 22  81.7105263157895 22  L 33.2894736842105 22  Z " fill-rule="evenodd" />
    </mask>
  </defs>
  <g transform="matrix(1 0 0 1 -446 -759 )">
    <path d="M 33.2894736842105 22  C 14.6473684210526 22  0 17.16  0 11  C 0 4.84  14.6473684210526 0  33.2894736842105 0  L 48.4210526315789 0  L 81.7105263157895 0  C 100.352631578947 0  115 4.84  115 11  C 115 17.16  100.352631578947 22  81.7105263157895 22  L 33.2894736842105 22  Z " fill-rule="nonzero" fill="#ffffff" stroke="none" transform="matrix(1 0 0 1 446 759 )" />
    <path d="M 33.2894736842105 22  C 14.6473684210526 22  0 17.16  0 11  C 0 4.84  14.6473684210526 0  33.2894736842105 0  L 48.4210526315789 0  L 81.7105263157895 0  C 100.352631578947 0  115 4.84  115 11  C 115 17.16  100.352631578947 22  81.7105263157895 22  L 33.2894736842105 22  Z " stroke-width="2" stroke="#797979" fill="none" transform="matrix(1 0 0 1 446 759 )" mask="url(#clip9)" />
  </g>
</svg>