<?xml version="1.0" encoding="utf-8"?>
<svg version="1.1" xmlns:xlink="http://www.w3.org/1999/xlink" width="38px" height="22px" xmlns="http://www.w3.org/2000/svg">
  <defs>
    <mask fill="white" id="clip7">
      <path d="M 11 22  C 4.83999999999997 22  0 17.16  0 11  C 0 4.84  4.83999999999997 0  11 0  L 16 0  L 27 0  C 33.16 0  38 4.84  38 11  C 38 17.16  33.16 22  27 22  L 11 22  Z " fill-rule="evenodd" />
    </mask>
  </defs>
  <g transform="matrix(1 0 0 1 -441 -153 )">
    <path d="M 11 22  C 4.83999999999997 22  0 17.16  0 11  C 0 4.84  4.83999999999997 0  11 0  L 16 0  L 27 0  C 33.16 0  38 4.84  38 11  C 38 17.16  33.16 22  27 22  L 11 22  Z " fill-rule="nonzero" fill="#ffffff" stroke="none" transform="matrix(1 0 0 1 441 153 )" />
    <path d="M 11 22  C 4.83999999999997 22  0 17.16  0 11  C 0 4.84  4.83999999999997 0  11 0  L 16 0  L 27 0  C 33.16 0  38 4.84  38 11  C 38 17.16  33.16 22  27 22  L 11 22  Z " stroke-width="2" stroke="#797979" fill="none" transform="matrix(1 0 0 1 441 153 )" mask="url(#clip7)" />
  </g>
</svg>