<?xml version="1.0" encoding="utf-8"?>
<svg version="1.1" xmlns:xlink="http://www.w3.org/1999/xlink" width="18px" height="18px" preserveAspectRatio="xMinYMid meet" viewBox="171 2386  18 16" xmlns="http://www.w3.org/2000/svg">
  <path d="M 180.5 2396  L 180.5 2430  " stroke-width="1" stroke="#0033ff" fill="none" />
  <path d="M 180.5 2391  A 3 3 0 0 0 177.5 2394 A 3 3 0 0 0 180.5 2397 A 3 3 0 0 0 183.5 2394 A 3 3 0 0 0 180.5 2391 Z M 180.5 2392  A 2 2 0 0 1 182.5 2394 A 2 2 0 0 1 180.5 2396 A 2 2 0 0 1 178.5 2394 A 2 2 0 0 1 180.5 2392 Z M 174.2 2429  L 180.5 2435  L 186.8 2429  L 174.2 2429  Z " fill-rule="nonzero" fill="#0033ff" stroke="none" />
</svg>