<?xml version="1.0" encoding="utf-8"?>
<svg version="1.1" xmlns:xlink="http://www.w3.org/1999/xlink" width="6px" height="10px" preserveAspectRatio="xMidYMin meet" viewBox="176 2764  4 10" xmlns="http://www.w3.org/2000/svg">
  <path d="M 180.5 2500  L 180.5 2768.5  A 0.5 0.5 0 0 0 181 2769.5 " stroke-width="1" stroke="#0033ff" fill="none" />
  <path d="M 180.5 2495  A 3 3 0 0 0 177.5 2498 A 3 3 0 0 0 180.5 2501 A 3 3 0 0 0 183.5 2498 A 3 3 0 0 0 180.5 2495 Z M 180.5 2496  A 2 2 0 0 1 182.5 2498 A 2 2 0 0 1 180.5 2500 A 2 2 0 0 1 178.5 2498 A 2 2 0 0 1 180.5 2496 Z M 175 2775.8  L 181 2769.5  L 175 2763.2  L 175 2775.8  Z " fill-rule="nonzero" fill="#0033ff" stroke="none" />
</svg>