<?xml version="1.0" encoding="utf-8"?>
<svg version="1.1" xmlns:xlink="http://www.w3.org/1999/xlink" width="18px" height="18px" preserveAspectRatio="xMinYMid meet" viewBox="171 1655  18 16" xmlns="http://www.w3.org/2000/svg">
  <path d="M 180.5 1665  L 180.5 1699  " stroke-width="1" stroke="#0033ff" fill="none" />
  <path d="M 180.5 1660  A 3 3 0 0 0 177.5 1663 A 3 3 0 0 0 180.5 1666 A 3 3 0 0 0 183.5 1663 A 3 3 0 0 0 180.5 1660 Z M 180.5 1661  A 2 2 0 0 1 182.5 1663 A 2 2 0 0 1 180.5 1665 A 2 2 0 0 1 178.5 1663 A 2 2 0 0 1 180.5 1661 Z M 174.2 1698  L 180.5 1704  L 186.8 1698  L 174.2 1698  Z " fill-rule="nonzero" fill="#0033ff" stroke="none" />
</svg>