<?xml version="1.0" encoding="utf-8"?>
<svg version="1.1" xmlns:xlink="http://www.w3.org/1999/xlink" width="18px" height="19px" preserveAspectRatio="xMidYMin meet" viewBox="172 2025  16 19" xmlns="http://www.w3.org/2000/svg">
  <path d="M 180.5 1769  L 180.5 2033  " stroke-width="1" stroke="#0033ff" fill="none" />
  <path d="M 180.5 1764  A 3 3 0 0 0 177.5 1767 A 3 3 0 0 0 180.5 1770 A 3 3 0 0 0 183.5 1767 A 3 3 0 0 0 180.5 1764 Z M 180.5 1765  A 2 2 0 0 1 182.5 1767 A 2 2 0 0 1 180.5 1769 A 2 2 0 0 1 178.5 1767 A 2 2 0 0 1 180.5 1765 Z M 174.2 2032  L 180.5 2038  L 186.8 2032  L 174.2 2032  Z " fill-rule="nonzero" fill="#0033ff" stroke="none" />
</svg>