<?xml version="1.0" encoding="utf-8"?>
<svg version="1.1" xmlns:xlink="http://www.w3.org/1999/xlink" width="18px" height="18px" preserveAspectRatio="xMinYMid meet" viewBox="790 1683  18 16" xmlns="http://www.w3.org/2000/svg">
  <path d="M 799.5 1693  L 799.5 1727  " stroke-width="1" stroke="#0033ff" fill="none" />
  <path d="M 799.5 1688  A 3 3 0 0 0 796.5 1691 A 3 3 0 0 0 799.5 1694 A 3 3 0 0 0 802.5 1691 A 3 3 0 0 0 799.5 1688 Z M 799.5 1689  A 2 2 0 0 1 801.5 1691 A 2 2 0 0 1 799.5 1693 A 2 2 0 0 1 797.5 1691 A 2 2 0 0 1 799.5 1689 Z M 793.2 1726  L 799.5 1732  L 805.8 1726  L 793.2 1726  Z " fill-rule="nonzero" fill="#0033ff" stroke="none" />
</svg>