<?xml version="1.0" encoding="utf-8"?>
<svg version="1.1" xmlns:xlink="http://www.w3.org/1999/xlink" width="18px" height="19px" preserveAspectRatio="xMidYMin meet" viewBox="791 2243  16 19" xmlns="http://www.w3.org/2000/svg">
  <path d="M 799.5 1797  L 799.5 2251  " stroke-width="1" stroke="#0033ff" fill="none" />
  <path d="M 799.5 1792  A 3 3 0 0 0 796.5 1795 A 3 3 0 0 0 799.5 1798 A 3 3 0 0 0 802.5 1795 A 3 3 0 0 0 799.5 1792 Z M 799.5 1793  A 2 2 0 0 1 801.5 1795 A 2 2 0 0 1 799.5 1797 A 2 2 0 0 1 797.5 1795 A 2 2 0 0 1 799.5 1793 Z M 793.2 2250  L 799.5 2256  L 805.8 2250  L 793.2 2250  Z " fill-rule="nonzero" fill="#0033ff" stroke="none" />
</svg>