<?xml version="1.0" encoding="utf-8"?>
<svg version="1.1" xmlns:xlink="http://www.w3.org/1999/xlink" width="18px" height="19px" preserveAspectRatio="xMidYMin meet" viewBox="791 2672  16 19" xmlns="http://www.w3.org/2000/svg">
  <path d="M 799.5 2321  L 799.5 2680  " stroke-width="1" stroke="#0033ff" fill="none" />
  <path d="M 799.5 2316  A 3 3 0 0 0 796.5 2319 A 3 3 0 0 0 799.5 2322 A 3 3 0 0 0 802.5 2319 A 3 3 0 0 0 799.5 2316 Z M 799.5 2317  A 2 2 0 0 1 801.5 2319 A 2 2 0 0 1 799.5 2321 A 2 2 0 0 1 797.5 2319 A 2 2 0 0 1 799.5 2317 Z M 793.2 2679  L 799.5 2685  L 805.8 2679  L 793.2 2679  Z " fill-rule="nonzero" fill="#0033ff" stroke="none" />
</svg>