<?xml version="1.0" encoding="utf-8"?>
<svg version="1.1" xmlns:xlink="http://www.w3.org/1999/xlink" width="63px" height="22px" xmlns="http://www.w3.org/2000/svg">
  <defs>
    <mask fill="white" id="clip10">
      <path d="M 18.2368421052632 22  C 8.02421052631575 22  0 17.16  0 11  C 0 4.84  8.02421052631575 0  18.2368421052632 0  L 26.5263157894737 0  L 44.7631578947368 0  C 54.9757894736842 0  63 4.84  63 11  C 63 17.16  54.9757894736842 22  44.7631578947368 22  L 18.2368421052632 22  Z " fill-rule="evenodd" />
    </mask>
  </defs>
  <g transform="matrix(1 0 0 1 -449 -299 )">
    <path d="M 18.2368421052632 22  C 8.02421052631575 22  0 17.16  0 11  C 0 4.84  8.02421052631575 0  18.2368421052632 0  L 26.5263157894737 0  L 44.7631578947368 0  C 54.9757894736842 0  63 4.84  63 11  C 63 17.16  54.9757894736842 22  44.7631578947368 22  L 18.2368421052632 22  Z " fill-rule="nonzero" fill="#ffffff" stroke="none" transform="matrix(1 0 0 1 449 299 )" />
    <path d="M 18.2368421052632 22  C 8.02421052631575 22  0 17.16  0 11  C 0 4.84  8.02421052631575 0  18.2368421052632 0  L 26.5263157894737 0  L 44.7631578947368 0  C 54.9757894736842 0  63 4.84  63 11  C 63 17.16  54.9757894736842 22  44.7631578947368 22  L 18.2368421052632 22  Z " stroke-width="2" stroke="#797979" fill="none" transform="matrix(1 0 0 1 449 299 )" mask="url(#clip10)" />
  </g>
</svg>