<?xml version="1.0" encoding="utf-8"?>
<svg version="1.1" xmlns:xlink="http://www.w3.org/1999/xlink" width="54px" height="22px" xmlns="http://www.w3.org/2000/svg">
  <defs>
    <mask fill="white" id="clip11">
      <path d="M 15.6315789473684 22  C 6.87789473684207 22  0 17.16  0 11  C 0 4.84  6.87789473684207 0  15.6315789473684 0  L 22.7368421052632 0  L 38.3684210526316 0  C 47.1221052631578 0  54 4.84  54 11  C 54 17.16  47.1221052631578 22  38.3684210526316 22  L 15.6315789473684 22  Z " fill-rule="evenodd" />
    </mask>
  </defs>
  <g transform="matrix(1 0 0 1 -465 -439 )">
    <path d="M 15.6315789473684 22  C 6.87789473684207 22  0 17.16  0 11  C 0 4.84  6.87789473684207 0  15.6315789473684 0  L 22.7368421052632 0  L 38.3684210526316 0  C 47.1221052631578 0  54 4.84  54 11  C 54 17.16  47.1221052631578 22  38.3684210526316 22  L 15.6315789473684 22  Z " fill-rule="nonzero" fill="#ffffff" stroke="none" transform="matrix(1 0 0 1 465 439 )" />
    <path d="M 15.6315789473684 22  C 6.87789473684207 22  0 17.16  0 11  C 0 4.84  6.87789473684207 0  15.6315789473684 0  L 22.7368421052632 0  L 38.3684210526316 0  C 47.1221052631578 0  54 4.84  54 11  C 54 17.16  47.1221052631578 22  38.3684210526316 22  L 15.6315789473684 22  Z " stroke-width="2" stroke="#797979" fill="none" transform="matrix(1 0 0 1 465 439 )" mask="url(#clip11)" />
  </g>
</svg>